<?xml version="1.0" encoding="UTF-8"?>
<svg version="1.1" xmlns="http://www.w3.org/2000/svg" width="115" height="130">
<path d="M0 0 C37.95 0 75.9 0 115 0 C115 42.9 115 85.8 115 130 C77.05 130 39.1 130 0 130 C0 87.1 0 44.2 0 0 Z " fill="#38A5D9" transform="translate(0,0)"/>
<path d="M0 0 C37.95 0 75.9 0 115 0 C115 42.9 115 85.8 115 130 C77.05 130 39.1 130 0 130 C0 87.1 0 44.2 0 0 Z M17.84765625 24.7734375 C9.42128072 37.49316715 6.30822678 49.79896587 8 65 C11.23908629 80.17363766 20.86057343 95.51425953 31 107 C31.66 107 32.32 107 33 107 C33.36738281 107.85464844 33.36738281 107.85464844 33.7421875 108.7265625 C38.30125105 116.96685748 47.31253343 122.87502228 55 128 C65.91830903 127.20368897 77.08458711 112.8544005 84 105 C91.47849741 95.82047733 97.7936209 86.10595142 102 75 C102.26345215 74.34169189 102.5269043 73.68338379 102.79833984 73.00512695 C105.03119719 67.02279194 105.54258211 61.54605941 105.5 55.1875 C105.49359497 53.73609619 105.49359497 53.73609619 105.48706055 52.25537109 C105.3057985 44.62699324 103.90487178 38.63071026 100 32 C99.62746094 31.28199219 99.25492187 30.56398438 98.87109375 29.82421875 C92.21419423 17.87891125 80.91621207 10.64661206 68.125 6.5625 C48.70302171 2.96736785 30.14369902 8.92917187 17.84765625 24.7734375 Z " fill="#FBFEFE" transform="translate(0,0)"/>
<path d="M0 0 C7.75913693 5.61045286 12.7391085 11.59084303 15 21 C15.18277996 23.73363559 15.28112647 26.33634013 15.25 29.0625 C15.26160156 30.0844043 15.26160156 30.0844043 15.2734375 31.12695312 C15.23963492 39.92407419 11.90483092 46.97469335 5.84765625 53.21875 C2.09582803 56.66468874 -1.07331668 59.44797537 -6 61 C-9.1875 60.8125 -9.1875 60.8125 -12 60 C-14.07339693 56.88990461 -14.71093713 54.79001388 -14.65625 51.05078125 C-13.50059434 47.43935731 -10.33185712 46.25230802 -7.19921875 44.41796875 C-4.0615892 42.39495005 -3.10915647 40.53543624 -2 37 C-1.67800965 34.61488627 -1.44143285 32.2586488 -1.30859375 29.85546875 C-1.20675781 29.24316406 -1.10492188 28.63085938 -1 28 C-0.34 27.67 0.32 27.34 1 27 C1 25.35 1 23.7 1 22 C-1.31 21.67 -3.62 21.34 -6 21 C-6 16.71 -6 12.42 -6 8 C-7.65 8.33 -9.3 8.66 -11 9 C-11.33 12.96 -11.66 16.92 -12 21 C-15.63 21 -19.26 21 -23 21 C-23 16.71 -23 12.42 -23 8 C-24.65 8 -26.3 8 -28 8 C-28 12.29 -28 16.58 -28 21 C-30.31 21.33 -32.62 21.66 -35 22 C-35.99 24.475 -35.99 24.475 -37 27 C-36.01 27.33 -35.02 27.66 -34 28 C-33.85304688 28.96099609 -33.85304688 28.96099609 -33.703125 29.94140625 C-32.69632815 35.7652053 -31.588905 40.24712582 -28 45 C-25.68115115 46.39629608 -23.5997873 47.15006954 -21 48 C-21 52.62 -21 57.24 -21 62 C-27.84545076 62 -30.49234774 60.61078601 -36 57 C-36.95132813 56.38318359 -36.95132813 56.38318359 -37.921875 55.75390625 C-44.34234557 50.96696249 -47.51943035 43.44170894 -50 36 C-51.03752131 25.69889559 -49.33397168 17.19727067 -43.35546875 8.6484375 C-32.34190383 -4.62750757 -15.59912556 -8.59151838 0 0 Z " fill="#F4FCFC" transform="translate(74,26)"/>
<path d="M0 0 C1.65 0 3.3 0 5 0 C5 4.29 5 8.58 5 13 C8.63 13 12.26 13 16 13 C16 9.04 16 5.08 16 1 C16.33 1 16.66 1 17 1 C17.19393875 3.14526099 17.37998676 5.29123677 17.5625 7.4375 C17.66691406 8.63246094 17.77132812 9.82742187 17.87890625 11.05859375 C17.91886719 12.02925781 17.95882812 12.99992187 18 14 C17 15 17 15 14.05859375 15.09765625 C10.70572917 15.06510417 7.35286458 15.03255208 4 15 C4 10.38 4 5.76 4 1 C2.68 1.33 1.36 1.66 0 2 C0 1.34 0 0.68 0 0 Z " fill="#5FAFD1" transform="translate(46,34)"/>
<path d="M0 0 C2.33294775 -0.04241723 4.66702567 -0.04092937 7 0 C8 1 8 1 8.0625 3.5625 C8.041875 4.366875 8.02125 5.17125 8 6 C7.01 6.33 6.02 6.66 5 7 C5.03480469 7.58007812 5.06960937 8.16015625 5.10546875 8.7578125 C5.28744524 14.009134 4.83377711 17.39511219 2 22 C1.4375 20.0625 1.4375 20.0625 1 18 C1.33 17.67 1.66 17.34 2 17 C2.20839015 15.35892758 2.36751725 13.71143707 2.5 12.0625 C2.89022298 7.21955403 2.89022298 7.21955403 4 5 C4.66 5 5.32 5 6 5 C6 4.01 6 3.02 6 2 C4.02 2 2.04 2 0 2 C0 1.34 0 0.68 0 0 Z " fill="#4FA4C9" transform="translate(68,47)"/>
<path d="M0 0 C1.65 0 3.3 0 5 0 C5 4.29 5 8.58 5 13 C4.67 13 4.34 13 4 13 C3.67 11.02 3.34 9.04 3 7 C2.67 7 2.34 7 2 7 C1.67 8.98 1.34 10.96 1 13 C0.67 13 0.34 13 0 13 C0 8.71 0 4.42 0 0 Z " fill="#4BA3C9" transform="translate(63,34)"/>
<path d="M0 0 C0.99 0 1.98 0 3 0 C3 3.96 3 7.92 3 12 C1.68 12 0.36 12 -1 12 C-1.02687279 10.18757948 -1.04633715 8.37504767 -1.0625 6.5625 C-1.07410156 5.55316406 -1.08570313 4.54382812 -1.09765625 3.50390625 C-1 1 -1 1 0 0 Z " fill="#399ECC" transform="translate(47,35)"/>
<path d="M0 0 C0.66 0 1.32 0 2 0 C3.98162188 7.96187362 5.26746029 13.53194449 1 21 C-0.17426264 18.65147472 -0.11508173 17.26225935 -0.09765625 14.6484375 C-0.09443359 13.79765625 -0.09121094 12.946875 -0.08789062 12.0703125 C-0.07951172 11.18085937 -0.07113281 10.29140625 -0.0625 9.375 C-0.05798828 8.4778125 -0.05347656 7.580625 -0.04882812 6.65625 C-0.03702591 4.43743352 -0.02056155 2.21874982 0 0 Z " fill="#5DB1D4" transform="translate(88,44)"/>
<path d="M0 0 C0.268125 0.5775 0.53625 1.155 0.8125 1.75 C1.90470909 4.03048621 1.90470909 4.03048621 3.5625 5.78125 C5.40031113 8.61787153 5.30703194 10.40310567 5.1875 13.75 C5.14689453 15.22726563 5.14689453 15.22726563 5.10546875 16.734375 C5.07066406 17.48203125 5.03585938 18.2296875 5 19 C2.59005985 15.38508977 2.24823314 12.40429344 1.5625 8.1796875 C1.376875 7.46039063 1.19125 6.74109375 1 6 C0.34 5.67 -0.32 5.34 -1 5 C-0.67 3.35 -0.34 1.7 0 0 Z " fill="#5CADCF" transform="translate(38,48)"/>
<path d="M0 0 C17.55605946 -1.08843537 17.55605946 -1.08843537 24.62890625 4.6875 C25.08136719 5.120625 25.53382812 5.55375 26 6 C22.74516042 6 21.04720753 5.29407536 18.0625 4.0625 C12.06818414 1.79459708 6.36942065 1.22231835 0 1 C0 0.67 0 0.34 0 0 Z " fill="#5FAECF" transform="translate(51,21)"/>
<path d="M0 0 C0 0.33 0 0.66 0 1 C-0.83402344 1.03738281 -1.66804688 1.07476563 -2.52734375 1.11328125 C-9.5546669 1.52381216 -15.43907095 2.44234969 -22 5 C-22 4.34 -22 3.68 -22 3 C-21.01 3 -20.02 3 -19 3 C-19 2.34 -19 1.68 -19 1 C-12.31349436 -0.48725585 -6.76106962 -1.27567351 0 0 Z " fill="#3FA3CF" transform="translate(64,20)"/>
<path d="M0 0 C0.33 0 0.66 0 1 0 C1.31732684 3.4905952 1.46521283 5.35585916 -0.625 8.25 C-3.32053291 10.23618214 -5.78414244 11.12294794 -9 12 C-8.60167969 11.55269531 -8.20335938 11.10539062 -7.79296875 10.64453125 C-4.8091044 7.23958629 -2.26706762 3.93753849 0 0 Z " fill="#51AAD0" transform="translate(85,71)"/>
<path d="M0 0 C0.66 0.33 1.32 0.66 2 1 C0.33333333 2.66666667 -1.33333333 4.33333333 -3 6 C-3.886875 6.928125 -4.77375 7.85625 -5.6875 8.8125 C-8 11 -8 11 -10 11 C-8.55218207 7.55571735 -6.72305391 5.63869038 -3.875 3.25 C-3.15054688 2.63640625 -2.42609375 2.0228125 -1.6796875 1.390625 C-0.84824219 0.70226562 -0.84824219 0.70226562 0 0 Z " fill="#DBF4FB" transform="translate(40,26)"/>
<path d="M0 0 C0 3.63053243 -1.2278255 4.95750337 -3.5546875 7.63671875 C-5.49136818 9.46347972 -7.46012234 10.27432067 -10 11 C-6.79239749 7.19364503 -3.59253891 3.45436433 0 0 Z " fill="#D7F2FA" transform="translate(77,111)"/>
</svg>
