<?xml version="1.0" encoding="UTF-8"?>
<svg version="1.1" xmlns="http://www.w3.org/2000/svg" width="479" height="512">
<path d="M0 0 C1.9005559 0.67160994 3.80112347 1.34318708 5.7019043 2.01416016 C14.17775918 5.05936538 22.17033654 8.83996086 30.13769531 13.02392578 C31.87405951 13.93399186 33.62028253 14.82517869 35.3671875 15.71484375 C51.12995225 23.90454426 66.51734007 34.30648433 79 47 C80.11204481 47.95283135 81.235557 48.89260821 82.375 49.8125 C86.35813431 53.20458858 89.69091287 56.95556017 93 61 C93.75152344 61.91394531 94.50304687 62.82789062 95.27734375 63.76953125 C123.67299107 99.43231106 139.18964775 140.83322025 139.18530273 186.37329102 C139.18746849 188.90073027 139.20561779 191.42771689 139.22460938 193.95507812 C139.32983467 223.83760506 134.07092953 251.61506229 122 279 C121.30626917 280.63182622 120.61469914 282.26457355 119.92578125 283.8984375 C115.86482521 293.41174471 111.2012452 302.55058172 106.30859375 311.66015625 C104.42588139 315.16984778 102.65947558 318.72067836 100.9375 322.3125 C97.80641692 328.64542509 93.97305063 334.4634467 90.08300781 340.34667969 C88.49592767 342.76951709 86.97063575 345.23028242 85.4375 347.6875 C81.86736139 353.30716263 77.97633907 358.66268715 74 364 C73.50886719 364.66386719 73.01773437 365.32773437 72.51171875 366.01171875 C68.14667967 371.87685576 63.68151385 377.66723629 59.20214844 383.4453125 C58.15244047 384.80285522 57.11069036 386.16654382 56.0703125 387.53125 C51.43313175 393.50186899 46.34445557 398.96339541 41.15576172 404.45019531 C36.47764934 409.42076885 32.15561205 414.58391795 28 420 C27.30777344 420.82757813 26.61554688 421.65515625 25.90234375 422.5078125 C24.16513753 424.78365967 23.1843806 426.5981994 22.1875 429.25 C16.63558504 442.22598729 4.70931368 452.52898154 -8.25 457.75 C-12.19644397 459.4230224 -15.30287903 461.62500844 -18.6875 464.25 C-27.96363765 471.42275867 -37.92193411 477.06573361 -49 481 C-49.969375 481.4125 -50.93875 481.825 -51.9375 482.25 C-57.81144978 483.68851831 -63.6745749 484.39221529 -68.98828125 481.2109375 C-69.98214844 480.48132813 -70.97601563 479.75171875 -72 479 C-72.93199219 478.38640625 -73.86398438 477.7728125 -74.82421875 477.140625 C-84.9154776 470.47736541 -94.60228418 463.33291039 -104.25 456.046875 C-106.5530524 454.33267122 -108.88256113 452.68534116 -111.25 451.0625 C-112.1575 450.381875 -113.065 449.70125 -114 449 C-114 448.34 -114 447.68 -114 447 C-114.55042969 446.76539063 -115.10085937 446.53078125 -115.66796875 446.2890625 C-123.59377292 441.90796472 -130.34123254 433.95614342 -136 427 C-136.54914063 426.3503125 -137.09828125 425.700625 -137.6640625 425.03125 C-143.62684399 417.73433019 -148.78400541 409.43198918 -153 401 C-154.7634375 400.690625 -154.7634375 400.690625 -156.5625 400.375 C-164.60068225 398.5233473 -169.45215594 390.64778751 -174.171875 384.38671875 C-176.10726641 381.85995774 -178.13879315 379.43560293 -180.1875 377 C-190.49321435 364.43717674 -199.33490844 350.72342842 -208 337 C-208.38172363 336.39639648 -208.76344727 335.79279297 -209.15673828 335.17089844 C-213.13939431 328.85040382 -216.92156187 322.4645269 -220.43359375 315.87109375 C-221.90171149 313.18015475 -223.44741282 310.54535499 -225.01147461 307.90942383 C-228.49597744 301.9934584 -231.28553055 296.09510253 -233.6015625 289.62109375 C-234.65276009 286.89913798 -235.75898371 284.34237776 -237.0234375 281.72265625 C-249.47716008 255.8233456 -255.22589024 228.80373648 -255.25 200.1875 C-255.25067474 199.46212036 -255.25134949 198.73674072 -255.25204468 197.98937988 C-255.22390303 178.83307331 -252.39795268 160.86161533 -247.59228516 142.32910156 C-247.06193534 140.24355446 -246.57402058 138.15479407 -246.10546875 136.0546875 C-243.34866543 124.39806709 -238.69843463 112.64217131 -232.41015625 102.4140625 C-231.1778888 100.30452985 -230.41349226 98.47161065 -229.61328125 96.18359375 C-228.01693989 91.75968477 -225.73845129 87.99585591 -223.1875 84.0625 C-222.73955078 83.36229736 -222.29160156 82.66209473 -221.83007812 81.94067383 C-220.94781106 80.56476493 -220.06236 79.19089113 -219.17333984 77.81933594 C-218.21979954 76.34081277 -217.28817673 74.84817141 -216.36328125 73.3515625 C-212.94052951 67.91831188 -208.81777578 63.31833947 -204.44140625 58.62890625 C-202.39292394 56.4231005 -200.43664044 54.17790814 -198.5 51.875 C-189.00538364 40.97953861 -176.98553183 31.97863849 -165 24 C-164.05898437 23.37351562 -163.11796875 22.74703125 -162.1484375 22.1015625 C-144.48428528 10.7875612 -125.21916496 3.35484734 -105 -2 C-103.95328125 -2.2784375 -102.9065625 -2.556875 -101.828125 -2.84375 C-92.96163835 -5.04934369 -84.07750839 -6.14315695 -75 -7 C-73.73542969 -7.12503906 -72.47085938 -7.25007813 -71.16796875 -7.37890625 C-48.35803618 -9.23470921 -21.37143082 -8.7079725 0 0 Z M-120 67 C-120.61875 67.78246094 -121.2375 68.56492187 -121.875 69.37109375 C-123.60459133 71.56551275 -125.31021746 73.77484081 -127 76 C-127.56203125 76.70640625 -128.1240625 77.4128125 -128.703125 78.140625 C-130.19069126 79.89557212 -130.19069126 79.89557212 -130 82 C-130.556875 82.226875 -131.11375 82.45375 -131.6875 82.6875 C-134.14296136 83.92442074 -134.14296136 83.92442074 -136.0625 86.25 C-138.53660499 88.89366981 -141.2663448 90.21954502 -144.5 91.8125 C-149.99843793 94.67611599 -152.23122672 97.59751556 -155 103 C-157.87586448 107.06587737 -161.29676696 110.10055123 -165.0625 113.3125 C-167.13988366 115.0755955 -167.13988366 115.0755955 -169.4375 117.5 C-171.67553488 119.68344866 -173.84084224 121.32160274 -176.375 123.125 C-188.19830491 132.203259 -196.67989389 151.43991649 -199 166 C-199.35851619 172.09151314 -199.31305705 178.20913827 -199.35009766 184.30932617 C-199.36665566 186.30618953 -199.39394365 188.30299366 -199.43212891 190.29956055 C-199.48714636 193.19610975 -199.50880689 196.0912786 -199.5234375 198.98828125 C-199.54610687 199.8718782 -199.56877625 200.75547516 -199.59213257 201.66584778 C-199.57029977 208.13248406 -197.7906414 211.85360196 -194 217 C-188.64607449 225.57946711 -184.37321977 234.07640734 -181.24291992 243.69726562 C-179.33332845 249.42538135 -176.77839003 254.55448025 -173.82226562 259.80859375 C-171.85104325 263.32564947 -170.26093653 266.75690998 -168.9375 270.5625 C-167.37225392 274.71380482 -165.49972318 276.66754707 -161.99609375 279.3046875 C-158.57705192 282.20853125 -155.97357855 285.80077098 -153.2109375 289.31640625 C-147.5322263 296.20911755 -141.6560647 300.78658679 -133.68359375 304.6484375 C-128.56006515 307.22884637 -123.67729648 310.25286719 -118.875 313.38671875 C-111.49263639 318.18813883 -104.80024914 320.47438785 -96 321 C-94.86691406 321.11408203 -94.86691406 321.11408203 -93.7109375 321.23046875 C-88.46885006 321.5637286 -85.0233101 320.60660182 -80.73046875 317.5390625 C-77.15979488 314.36333901 -75.36884889 311.35141165 -74.625 306.609375 C-74.35490829 301.10625642 -75.31586359 297.40373893 -78.3203125 292.7890625 C-79 291 -79 291 -78.14453125 289.0703125 C-77.76683594 288.38710938 -77.38914062 287.70390625 -77 287 C-76.1895842 281.98395271 -76.36537368 277.36217639 -78.875 272.875 C-81.15569569 269.72106873 -83.62957285 267.7381953 -86.79296875 265.49609375 C-92.59945735 260.93158961 -95.35150699 255.79077134 -98.4375 249.1875 C-99.43147543 247.13702695 -100.42998162 245.08874234 -101.43359375 243.04296875 C-101.85697021 242.14602295 -102.28034668 241.24907715 -102.71655273 240.32495117 C-103.94683314 238.09631121 -105.02707128 236.59603652 -107 235 C-107.66 235 -108.32 235 -109 235 C-109.2475 234.278125 -109.495 233.55625 -109.75 232.8125 C-111.13194983 229.70311288 -112.84468477 227.6338555 -115 225 C-117.10288448 222.2770342 -119.19752795 219.54807714 -121.2890625 216.81640625 C-123.22617084 214.29103494 -125.15660876 211.82572256 -127.28515625 209.45703125 C-129.36330719 206.4794528 -129.43278973 204.78143888 -129.4375 201.1875 C-129.73254596 195.35134705 -131.10382763 191.39163938 -135 187 C-135.99 186.34 -136.98 185.68 -138 185 C-137.58448586 181.03903239 -137.1388974 177.08202598 -136.6875 173.125 C-136.56955078 171.99707031 -136.45160156 170.86914062 -136.33007812 169.70703125 C-136.20439453 168.63066406 -136.07871094 167.55429688 -135.94921875 166.4453125 C-135.83924561 165.45031738 -135.72927246 164.45532227 -135.6159668 163.43017578 C-135 161 -135 161 -132 159 C-131.34 159.33 -130.68 159.66 -130 160 C-123.52209733 160.7633892 -118.16627072 160.57890587 -112.78125 156.68359375 C-109.48860744 153.57146887 -107.12784954 149.97951801 -105 146 C-104.45859375 144.989375 -103.9171875 143.97875 -103.359375 142.9375 C-100.90953105 137.08277484 -101.56447197 130.50648989 -101.56054688 124.2734375 C-101.41674979 116.65715036 -101.41674979 116.65715036 -99.04296875 112.9140625 C-98.36878906 112.28242188 -97.69460937 111.65078125 -97 111 C-95.05282366 107.88451786 -94.79682289 105.65718791 -95 102 C-94.16210938 102.49113281 -93.32421875 102.98226562 -92.4609375 103.48828125 C-88.53749169 105.20202112 -85.87936792 105.30790664 -81.625 105.1875 C-79.75714844 105.14689453 -79.75714844 105.14689453 -77.8515625 105.10546875 C-76.44003906 105.05326172 -76.44003906 105.05326172 -75 105 C-75.32097656 106.0415625 -75.64195312 107.083125 -75.97265625 108.15625 C-77.47720144 114.21174455 -77.4071023 120.29211468 -77.4375 126.5 C-77.48680664 128.27697266 -77.48680664 128.27697266 -77.53710938 130.08984375 C-77.58155618 137.33871407 -76.96093558 142.49774686 -72 148 C-67.35160593 152.32886136 -63.35687398 153.36664576 -57 153.625 C-50.98421707 153.3866874 -46.2014818 152.53003369 -42 148 C-37.96132232 142.31110993 -37.48900866 138.05255861 -37.5 131.1875 C-37.35831198 124.43922475 -36.87599296 119.07196762 -33.85546875 112.921875 C-32.66574396 110.24906863 -32.69736368 107.87504501 -33 105 C-32.34 105.33 -31.68 105.66 -31 106 C-28.62876754 106.23029956 -26.25258057 106.41119942 -23.875 106.5625 C-22.59367188 106.64628906 -21.31234375 106.73007813 -19.9921875 106.81640625 C-18.51105469 106.90728516 -18.51105469 106.90728516 -17 107 C-16.99742187 108.26972656 -16.99484375 109.53945312 -16.9921875 110.84765625 C-16.72079615 127.30617668 -13.30857618 140.34049564 -2 153 C3.38457949 157.69360059 6.55265213 159.26894696 13.75 159.125 C15.50570312 159.09792969 15.50570312 159.09792969 17.296875 159.0703125 C18.63492188 159.03550781 18.63492188 159.03550781 20 159 C19.50628906 159.72960937 19.01257813 160.45921875 18.50390625 161.2109375 C13.77558964 168.91704706 12.43988786 174.67208096 12.35180664 183.68603516 C12.24295388 188.96849602 11.482024 191.77530147 8.1328125 195.95703125 C5.99731726 199.80828647 6.40138924 204.27135012 6.23046875 208.5859375 C5.77333129 215.35777033 3.86669442 221.13330558 -1 226 C-1.94875 226.556875 -2.8975 227.11375 -3.875 227.6875 C-9.7409742 232.02832091 -12.47715141 238.87240611 -15.625 245.3125 C-17.41310497 248.96250475 -19.32251019 251.91682991 -22 255 C-23.05227827 256.34593732 -24.09314067 257.70084544 -25.125 259.0625 C-25.62257812 259.71347656 -26.12015625 260.36445313 -26.6328125 261.03515625 C-28.06213064 262.96631146 -28.06213064 262.96631146 -29.00390625 265.18359375 C-30.54977387 268.00252883 -33.01647598 268.06399246 -36 269 C-40.18806242 271.72711042 -42.30956342 274.28457164 -44 279 C-44.40056046 283.25322381 -44.35536324 286.93391028 -43 291 C-43.08065395 292.33496195 -43.1876665 293.66844262 -43.3125 295 C-43.36366417 301.26249441 -40.67976916 306.0621901 -37 311 C-27.40062271 319.94300962 -13.02984126 319.85987636 -0.75390625 319.53515625 C9.9598307 318.846453 16.57284533 313.14015224 23.671875 305.40625 C26 303 26 303 27.84057617 301.51391602 C33.42455539 297.00110865 36.56129071 292.29363775 39.8125 285.9375 C40.27591797 285.06544922 40.73933594 284.19339844 41.21679688 283.29492188 C43.07294408 279.78709576 44.872261 276.26910771 46.57421875 272.68359375 C48.57406036 268.91950831 51.27418483 265.95803787 54.0625 262.7578125 C58.33186706 256.68085051 59.32151245 250.70580003 59.75 243.4375 C60.41131286 235.40488679 62.61835322 229.33788582 66.34375 222.234375 C77.41871879 200.6068416 76.27244307 156.56976459 69.32958984 133.66796875 C66.03275415 124.37539523 62.29907634 116.80141204 55 110 C54.37738281 109.40703125 53.75476563 108.8140625 53.11328125 108.203125 C49.15548564 104.55441438 46.19334652 102.6074644 41 101 C40.61134766 100.09701172 40.61134766 100.09701172 40.21484375 99.17578125 C38.45941036 96.03180569 36.06845924 95.0961121 32.9375 93.375 C27.2175457 90.09141051 23.1655433 86.38174039 19 81.19921875 C16.86067397 78.84679579 14.72463825 77.60011382 12 76 C11.236875 74.948125 10.47375 73.89625 9.6875 72.8125 C4.74241066 66.79957645 -3.03005212 64.04810638 -10 61 C-11.13953125 60.50113281 -12.2790625 60.00226563 -13.453125 59.48828125 C-31.34200297 52.43022869 -50.72317953 52.44048166 -69.68481445 52.4440918 C-73.58836552 52.43745603 -77.48946583 52.38255477 -81.39257812 52.32617188 C-83.90884563 52.31737979 -86.42512497 52.3114189 -88.94140625 52.30859375 C-90.66515221 52.27625893 -90.66515221 52.27625893 -92.42372131 52.24327087 C-104.6063531 52.34588302 -112.78183762 57.43940511 -120 67 Z " fill="#39A5D9" transform="translate(274,28)"/>
<path d="M0 0 C1.25683594 0.47566406 1.25683594 0.47566406 2.5390625 0.9609375 C6.2340989 2.07028251 9.52889627 2.40729602 13.375 2.625 C14.62023437 2.69976562 15.86546875 2.77453125 17.1484375 2.8515625 C18.08945313 2.90054688 19.03046875 2.94953125 20 3 C19.76410156 4.56234375 19.76410156 4.56234375 19.5234375 6.15625 C18.76899974 12.25618801 18.69848878 18.36034624 18.625 24.5 C18.58761719 25.68464844 18.55023438 26.86929688 18.51171875 28.08984375 C18.43886417 35.35101718 19.03235741 40.47980584 24 46 C29.40496766 50.59997247 34.63088293 50.66451265 41.609375 50.44921875 C46.2713922 49.83155518 49.7810097 48.4865638 53 45 C56.39690156 39.80195064 56.38884358 35.24312885 56.4375 29.25 C56.63107655 21.82799176 57.26776035 15.5965166 61 9 C61.33 9 61.66 9 62 9 C62 24.51 62 40.02 62 56 C63.32 56 64.64 56 66 56 C65.75169815 59.0623895 65.48640301 60.56312307 63.16333008 62.6496582 C58.35192319 64.70352032 53.75007046 64.36833659 48.57421875 64.29296875 C47.59634399 64.28994751 46.61846924 64.28692627 45.61096191 64.28381348 C41.96970007 64.26815669 38.32858907 64.22627271 34.6875 64.1875 C26.540625 64.125625 18.39375 64.06375 10 64 C10 45.52 10 27.04 10 8 C6.04 8 2.08 8 -2 8 C-1.34 5.36 -0.68 2.72 0 0 Z " fill="#5FAFD1" transform="translate(179,130)"/>
<path d="M0 0 C2.69342177 2.37333397 3.98886832 4.73226689 5.4375 8 C5.82808594 8.86625 6.21867188 9.7325 6.62109375 10.625 C10.51315006 20.15116616 13.17534126 29.4598952 15.1875 39.5625 C15.44724609 40.81224609 15.70699219 42.06199219 15.97460938 43.34960938 C18.51050838 55.81941764 19.18651293 67.68917997 19.18530273 80.37329102 C19.18746849 82.90073027 19.20561779 85.42771689 19.22460938 87.95507812 C19.32983467 117.83760506 14.07092953 145.61506229 2 173 C1.30626917 174.63182622 0.61469914 176.26457355 -0.07421875 177.8984375 C-4.13517479 187.41174471 -8.7987548 196.55058172 -13.69140625 205.66015625 C-15.57411861 209.16984778 -17.34052442 212.72067836 -19.0625 216.3125 C-22.19358308 222.64542509 -26.02694937 228.4634467 -29.91699219 234.34667969 C-31.50407233 236.76951709 -33.02936425 239.23028242 -34.5625 241.6875 C-38.13263861 247.30716263 -42.02366093 252.66268715 -46 258 C-46.49113281 258.66386719 -46.98226562 259.32773437 -47.48828125 260.01171875 C-51.85332033 265.87685576 -56.31848615 271.66723629 -60.79785156 277.4453125 C-61.84755953 278.80285522 -62.88930964 280.16654382 -63.9296875 281.53125 C-68.56686825 287.50186899 -73.65554443 292.96339541 -78.84423828 298.45019531 C-83.52235066 303.42076885 -87.84438795 308.58391795 -92 314 C-92.69222656 314.82757813 -93.38445312 315.65515625 -94.09765625 316.5078125 C-95.83486247 318.78365967 -96.8156194 320.5981994 -97.8125 323.25 C-103.36441496 336.22598729 -115.29068632 346.52898154 -128.25 351.75 C-132.19644397 353.4230224 -135.30287903 355.62500844 -138.6875 358.25 C-147.96363765 365.42275867 -157.92193411 371.06573361 -169 375 C-169.969375 375.4125 -170.93875 375.825 -171.9375 376.25 C-176.6010377 377.39209087 -181.22321946 377.15299297 -186 377 C-182.64584069 375.06240312 -179.55266925 374.5028826 -175.75 373.875 C-161.27666826 370.86911594 -144.8829082 362.1073393 -135 351 C-134.69964844 350.3915625 -134.39929688 349.783125 -134.08984375 349.15625 C-132.42865884 345.86960458 -129.96895528 343.25704212 -127.5625 340.5 C-127.03116455 339.88560059 -126.4998291 339.27120117 -125.95239258 338.63818359 C-121.54876265 333.57097512 -117.03176659 328.61500604 -112.46875 323.69140625 C-110.3238498 321.35305777 -108.24547024 318.97700456 -106.1875 316.5625 C-103.37673205 313.3104279 -100.38658429 310.64318774 -97 308 C-96.67 309.98 -96.34 311.96 -96 314 C-89.46453883 307.04432306 -83.10658247 300.04490394 -77.1328125 292.59375 C-75.06446632 290.07839861 -72.90479765 287.69669102 -70.6875 285.3125 C-65.1997529 279.27312494 -60.40567383 272.75201934 -55.59130859 266.17382812 C-54.00112097 264.00153132 -52.40105364 261.83674882 -50.80078125 259.671875 C-35.49472458 238.8473081 -22.33887592 217.16583001 -10.9765625 193.96777344 C-9.98485327 191.96947934 -8.96557004 189.98762031 -7.9375 188.0078125 C-3.58584206 179.58783175 0.08010626 171.1305309 3.22167969 162.18945312 C4.06395046 159.82010422 4.940813 157.46514434 5.8203125 155.109375 C9.62708782 144.78066866 12.3672642 134.88435916 14 124 C14.18046875 122.83887695 14.3609375 121.67775391 14.546875 120.48144531 C15.9978409 110.20102218 16.27756881 100.10173385 16.20581055 89.72753906 C16.18752121 87.00315943 16.18530214 84.27912236 16.18554688 81.5546875 C16.15795494 66.45856664 15.91054965 51.74778666 12.3125 37 C12.04848389 35.88786133 11.78446777 34.77572266 11.51245117 33.62988281 C9.05438382 23.60556551 6.01412132 13.9298797 1.32421875 4.703125 C0 2 0 2 0 0 Z " fill="#EEF7FB" transform="translate(394,134)"/>
<path d="M0 0 C0.33 0 0.66 0 1 0 C1 13.86 1 27.72 1 42 C-8.33057463 43.74948274 -17.63213297 45.49191535 -27 47 C-27.91777516 54.03627623 -25.017896 58.36581401 -21 64 C-19.9781926 65.20463078 -18.93784289 66.39391509 -17.875 67.5625 C-11.91469844 74.16419884 -9.86421575 82.04119156 -9.90234375 90.734375 C-9.90556641 92.02988281 -9.90878906 93.32539063 -9.91210938 94.66015625 C-9.92046402 96.02343817 -9.92892896 97.38671942 -9.9375 98.75 C-9.94251832 100.12890465 -9.94708065 101.50781104 -9.95117188 102.88671875 C-9.96295907 106.25785659 -9.97941365 109.62890628 -10 113 C-13.32974606 109.74021029 -16.1977508 106.2776031 -19 102.5625 C-19.85370682 101.43845269 -20.70786749 100.31474991 -21.5625 99.19140625 C-22.17436157 98.37603394 -22.17436157 98.37603394 -22.79858398 97.54418945 C-23.89882271 96.13004396 -25.08858081 94.78674412 -26.28515625 93.453125 C-28.36486516 90.47805166 -28.43279127 88.78025802 -28.4375 85.1875 C-28.73254596 79.35134705 -30.10382763 75.39163938 -34 71 C-34.99 70.34 -35.98 69.68 -37 69 C-36.6125556 65.05904774 -36.18508558 61.12345457 -35.75 57.1875 C-35.64042969 56.06794922 -35.53085938 54.94839844 -35.41796875 53.79492188 C-35.29550781 52.72177734 -35.17304688 51.64863281 -35.046875 50.54296875 C-34.94213867 49.55321045 -34.83740234 48.56345215 -34.72949219 47.54370117 C-33.84290613 44.45222187 -32.71381235 43.61821849 -30 42 C-29.34 42.33 -28.68 42.66 -28 43 C-21.57871763 43.75671678 -16.1419257 43.60764681 -10.78515625 39.7578125 C-4.8968014 33.95965127 -0.86221714 25.72281121 -0.5859375 17.48046875 C-0.54726562 16.45888672 -0.50859375 15.43730469 -0.46875 14.38476562 C-0.4378125 13.32966797 -0.406875 12.27457031 -0.375 11.1875 C-0.33632812 10.11306641 -0.29765625 9.03863281 -0.2578125 7.93164062 C-0.16381387 5.28792912 -0.07815427 2.6442195 0 0 Z " fill="#5CADCF" transform="translate(172,144)"/>
<path d="M0 0 C1.69563696 2.54345544 3.22238158 5.10541327 4.75 7.75 C8.66572944 14.26037541 12.48324953 20.53997257 20 23 C24.32801761 23.5222578 28.64554407 23.8126421 33 24 C31.97619972 27.49798431 30.86267623 30.21710965 28.90234375 33.31640625 C26.44375821 37.45879863 26.53086998 41.22265004 26.5625 45.9375 C26.43278218 52.15647151 26.10762534 55.9941935 22.1328125 60.95703125 C19.99698421 64.8088871 20.40194161 69.27459456 20.2265625 73.58984375 C19.72229661 81.17991488 17.3518103 86.6481897 12 92 C10.03625365 93.38617389 8.04087808 94.73012031 6 96 C5.01 96.99 5.01 96.99 4 98 C4.33 96.35 4.66 94.7 5 93 C6.485 92.505 6.485 92.505 8 92 C8.04898437 90.99324219 8.09796875 89.98648438 8.1484375 88.94921875 C10.06520064 51.90219904 10.06520064 51.90219904 16 43 C17.9453125 42.70703125 17.9453125 42.70703125 20.125 42.8125 C21.40375 42.874375 22.6825 42.93625 24 43 C24 39.04 24 35.08 24 31 C16.08 31 8.16 31 0 31 C0 20.77 0 10.54 0 0 Z " fill="#50A4C9" transform="translate(261,163)"/>
<path d="M0 0 C1.32 0.33 2.64 0.66 4 1 C4.81736749 4.9990211 5.62800952 8.99937762 6.4375 13 C6.66759766 14.12535156 6.89769531 15.25070313 7.13476562 16.41015625 C11.9550362 40.30193214 11.29301731 61.01625965 0 83 C-0.99 82.67 -1.98 82.34 -3 82 C-3.39832031 83.2065625 -3.79664063 84.413125 -4.20703125 85.65625 C-4.74210565 87.27086046 -5.27726652 88.88544227 -5.8125 90.5 C-6.07353516 91.29148437 -6.33457031 92.08296875 -6.60351562 92.8984375 C-8.29020221 97.97932054 -10.09008014 102.9986483 -12 108 C-12.66 108 -13.32 108 -14 108 C-13.41592094 96.25881885 -12.22379301 86.61500129 -6.65625 76.1640625 C-3.39819764 69.93995303 -2.49359622 64.21626041 -1.9375 57.3125 C-1.85516113 56.32314453 -1.77282227 55.33378906 -1.68798828 54.31445312 C-0.34931329 36.25692035 -0.30477347 18.09809295 0 0 Z " fill="#5CB0D4" transform="translate(346,174)"/>
<path d="M0 0 C16 1 16 1 17 2 C17.13255904 3.44025113 17.20323778 4.88632776 17.24609375 6.33203125 C17.29540039 7.65364258 17.29540039 7.65364258 17.34570312 9.00195312 C17.40651464 10.86382066 17.46385152 12.72580518 17.51757812 14.58789062 C17.56881836 15.91530273 17.56881836 15.91530273 17.62109375 17.26953125 C17.6461499 18.08010986 17.67120605 18.89068848 17.69702148 19.72583008 C17.86788562 22.01829655 17.86788562 22.01829655 19.01147461 23.90209961 C20.3660649 26.77688212 20.22519396 29.12944071 20.1953125 32.296875 C20.18886719 33.50214844 20.18242187 34.70742187 20.17578125 35.94921875 C20.15902344 37.20347656 20.14226562 38.45773438 20.125 39.75 C20.11597656 41.01972656 20.10695313 42.28945312 20.09765625 43.59765625 C20.07409005 46.73196093 20.04118832 49.86588541 20 53 C18.68 53 17.36 53 16 53 C15.32882733 49.56336386 14.66383929 46.12555959 14 42.6875 C13.80921875 41.71103516 13.6184375 40.73457031 13.421875 39.72851562 C13.24140625 38.79072266 13.0609375 37.85292969 12.875 36.88671875 C12.70742187 36.02264404 12.53984375 35.15856934 12.3671875 34.26831055 C12 32 12 32 12 29 C10.68 29 9.36 29 8 29 C6.68 36.92 5.36 44.84 4 53 C2.68 53 1.36 53 0 53 C0 35.51 0 18.02 0 0 Z " fill="#4BA3C9" transform="translate(241,133)"/>
<path d="M0 0 C0 15.84 0 31.68 0 48 C-5.28 48 -10.56 48 -16 48 C-16.09899561 41.96774061 -16.17152907 35.93595573 -16.21972656 29.90307617 C-16.23982199 27.85156007 -16.26710324 25.80010111 -16.30175781 23.7487793 C-16.35036669 20.79721975 -16.37298952 17.84641852 -16.390625 14.89453125 C-16.41127014 13.97976517 -16.43191528 13.06499908 -16.45318604 12.12251282 C-16.45453977 8.26677814 -16.19457877 5.47612158 -14.72558594 1.8815918 C-12 0 -12 0 0 0 Z " fill="#399ECC" transform="translate(189,138)"/>
<path d="M0 0 C1.25683594 0.47566406 1.25683594 0.47566406 2.5390625 0.9609375 C6.2340989 2.07028251 9.52889627 2.40729602 13.375 2.625 C14.62023437 2.69976562 15.86546875 2.77453125 17.1484375 2.8515625 C18.08945313 2.90054688 19.03046875 2.94953125 20 3 C19.76410156 4.56234375 19.76410156 4.56234375 19.5234375 6.15625 C18.76899974 12.25618801 18.69848878 18.36034624 18.625 24.5 C18.58761719 25.68464844 18.55023438 26.86929688 18.51171875 28.08984375 C18.43886417 35.35101718 19.03235741 40.47980584 24 46 C29.40496766 50.59997247 34.63088293 50.66451265 41.609375 50.44921875 C46.2713922 49.83155518 49.7810097 48.4865638 53 45 C56.47120494 39.71985727 56.5347392 34.74416135 56.6875 28.625 C56.72166016 27.69816406 56.75582031 26.77132812 56.79101562 25.81640625 C56.87299552 23.54439188 56.94230494 21.27273896 57 19 C57.33 19 57.66 19 58 19 C58.0246501 24.10863896 58.04283607 29.21724359 58.05493164 34.32592773 C58.05997204 36.06519168 58.0668043 37.80445136 58.07543945 39.54370117 C58.08751792 42.03825937 58.09323108 44.53276173 58.09765625 47.02734375 C58.10281754 47.80963852 58.10797882 48.59193329 58.11329651 49.39793396 C58.11349226 51.26567114 58.06199694 53.13329204 58 55 C57 56 57 56 55.24729919 56.12025452 C54.48562943 56.11803391 53.72395966 56.11581329 52.93920898 56.11352539 C52.06631226 56.11340454 51.19341553 56.11328369 50.29406738 56.11315918 C48.90907043 56.10548523 48.90907043 56.10548523 47.49609375 56.09765625 C46.6517981 56.09664917 45.80750244 56.09564209 44.93762207 56.09460449 C41.77090098 56.0893557 38.60419919 56.07539456 35.4375 56.0625 C28.363125 56.041875 21.28875 56.02125 14 56 C14 38.84 14 21.68 14 4 C9.38 4 4.76 4 0 4 C0 2.68 0 1.36 0 0 Z " fill="#F1FAFB" transform="translate(179,130)"/>
<path d="M0 0 C1.70781602 5.80657446 0.91559933 8.93658682 -1.875 14.3125 C-9.82125576 27.891943 -19.55854816 38.4383968 -35 43 C-35.99 43 -36.98 43 -38 43 C-36.30344044 38.90416391 -33.44253227 35.79961264 -30.5625 32.5 C-30.03116455 31.88560059 -29.4998291 31.27120117 -28.95239258 30.63818359 C-24.54935541 25.57165719 -20.03151198 20.61759424 -15.47265625 15.69140625 C-13.31752098 13.3456113 -11.20937307 10.97100884 -9.125 8.5625 C-1.68867432 0 -1.68867432 0 0 0 Z " fill="#D2EFF9" transform="translate(297,442)"/>
<path d="M0 0 C3.50940433 5.2641065 2.50620784 11.87611978 2 18 C0.19690789 25.13801413 -3.11994973 31.98743475 -9.2421875 36.265625 C-10.44501271 36.94172283 -11.6562269 37.60309283 -12.875 38.25 C-13.47441406 38.58773437 -14.07382812 38.92546875 -14.69140625 39.2734375 C-18.35792607 41.29360243 -21.99380319 42.79936609 -26 44 C-25.50371094 43.06800781 -25.00742187 42.13601563 -24.49609375 41.17578125 C-24.00882812 40.26058716 -24.00882812 40.26058716 -23.51171875 39.3269043 C-22.78787793 37.96953824 -22.06258687 36.61294468 -21.3359375 35.25708008 C-19.59366332 32.00435435 -17.87066623 28.74691923 -16.19140625 25.4609375 C-12.90665212 19.10383828 -9.34235856 13.64218178 -4.734375 8.16796875 C-2.64848038 5.56060048 -1.29042089 3.06474961 0 0 Z " fill="#50A9D0" transform="translate(332,282)"/>
<path d="M0 0 C2.475 0.99 2.475 0.99 5 2 C10.28 3.98 15.56 5.96 21 8 C21 26.48 21 44.96 21 64 C17.04 64 13.08 64 9 64 C8.34 63.34 7.68 62.68 7 62 C7.81404297 61.56300781 7.81404297 61.56300781 8.64453125 61.1171875 C13.37956593 58.4041406 16.35547557 56.44748718 18 51 C18.84045019 44.67002702 18.17790984 40.1621491 14.6796875 34.7890625 C14 33 14 33 14.85546875 31.0703125 C15.23316406 30.38710938 15.61085937 29.70390625 16 29 C16.98087573 22.92889546 16.32030192 18.002988 12.7734375 12.94921875 C9.89327514 9.78357774 6.55913372 7.27759308 3.109375 4.76171875 C1 3 1 3 0 0 Z " fill="#EEF9FB" transform="translate(180,286)"/>
<path d="M0 0 C18.06984392 -0.9034922 31.92832998 7.38215891 45 19 C47.21305793 21.25576607 49.09299462 23.47602229 51 26 C47.8125 26.8125 47.8125 26.8125 44 27 C41.4375 24.875 41.4375 24.875 39 22 C26.64978706 10.93224161 9.23387774 4.99206925 -7 3 C-7 2.67 -7 2.34 -7 2 C-4.69 2 -2.38 2 0 2 C0 1.34 0 0.68 0 0 Z " fill="#5FAECF" transform="translate(245,80)"/>
<path d="M0 0 C0.66 0.33 1.32 0.66 2 1 C-2.41595416 7.11556539 -6.49352217 12.61350914 -13.125 16.4375 C-16.93648053 18.76034568 -18.64911111 20.60961112 -20 25 C-20.38010443 29.26155546 -20.35838623 32.92484132 -19 37 C-19.08065395 38.33496195 -19.1876665 39.66844262 -19.3125 41 C-19.37358022 47.22000196 -16.67450863 52.10596898 -13 57 C-10.68335291 58.87736271 -8.77788229 59.83328944 -6 61 C-9 62 -9 62 -11.4375 61.375 C-17.8254759 57.94730561 -20.89245145 50.64312778 -22.91796875 43.98046875 C-27.02897941 27.71013078 -27.02897941 27.71013078 -24.015625 20.71484375 C-22.78343242 18.68020477 -21.48741044 16.85534882 -20 15 C-19.45085937 14.21109375 -18.90171875 13.4221875 -18.3359375 12.609375 C-15.25912323 9.17239852 -11.79069619 7.01364473 -7.875 4.625 C-7.14667969 4.16222656 -6.41835937 3.69945312 -5.66796875 3.22265625 C-1.64036929 0.72867137 -1.64036929 0.72867137 0 0 Z " fill="#E8F6F9" transform="translate(251,282)"/>
<path d="M0 0 C0.33 0 0.66 0 1 0 C1 13.86 1 27.72 1 42 C-16.77777778 45.33333333 -16.77777778 45.33333333 -24.83984375 46.47265625 C-25.55269531 46.64667969 -26.26554688 46.82070312 -27 47 C-27.33 47.66 -27.66 48.32 -28 49 C-28.66 49 -29.32 49 -30 49 C-30 48.34 -30 47.68 -30 47 C-30.66 47 -31.32 47 -32 47 C-31.938125 48.4540625 -31.938125 48.4540625 -31.875 49.9375 C-31.85651067 54.44889724 -32.89482578 58.64837652 -34 63 C-34.33 63 -34.66 63 -35 63 C-35.22468205 50.81723976 -35.22468205 50.81723976 -34 45 C-31.9375 43 -31.9375 43 -30 42 C-29.34 42.33 -28.68 42.66 -28 43 C-21.57871763 43.75671678 -16.1419257 43.60764681 -10.78515625 39.7578125 C-4.8968014 33.95965127 -0.86221714 25.72281121 -0.5859375 17.48046875 C-0.54726562 16.45888672 -0.50859375 15.43730469 -0.46875 14.38476562 C-0.4378125 13.32966797 -0.406875 12.27457031 -0.375 11.1875 C-0.33632812 10.11306641 -0.29765625 9.03863281 -0.2578125 7.93164062 C-0.16381387 5.28792912 -0.07815427 2.6442195 0 0 Z " fill="#E6F5F8" transform="translate(172,144)"/>
<path d="M0 0 C2.69342177 2.37333397 3.98886832 4.73226689 5.4375 8 C5.82808594 8.86625 6.21867187 9.7325 6.62109375 10.625 C10.51315006 20.15116616 13.17534126 29.4598952 15.1875 39.5625 C15.44724609 40.81224609 15.70699219 42.06199219 15.97460938 43.34960938 C18.53625473 55.94602051 19.16170388 67.89138482 19.13037109 80.70288086 C19.12503371 83.29612127 19.13032966 85.88918687 19.13671875 88.48242188 C19.1509089 114.27363665 19.1509089 114.27363665 16 119 C16.00222061 118.37154175 16.00444122 117.7430835 16.00672913 117.09558105 C16.02908268 110.47534766 16.04403014 103.85512521 16.05493164 97.23486328 C16.05991917 94.77359582 16.06671159 92.31233126 16.07543945 89.85107422 C16.35537519 63.22561132 16.35537519 63.22561132 12.3125 37 C12.04848389 35.88786133 11.78446777 34.77572266 11.51245117 33.62988281 C9.05438382 23.60556551 6.01412132 13.9298797 1.32421875 4.703125 C0 2 0 2 0 0 Z " fill="#F2F9FC" transform="translate(394,134)"/>
<path d="M0 0 C1.69563696 2.54345544 3.22238158 5.10541327 4.75 7.75 C8.44878898 13.92968402 12.22953373 18.67215029 18 23 C12.06 23 6.12 23 0 23 C0 15.41 0 7.82 0 0 Z " fill="#EFF9FA" transform="translate(261,163)"/>
<path d="M0 0 C9.11662114 4.87366539 9.11662114 4.87366539 10.875 9.8125 C11.30482603 11.52886009 11.66871651 13.26192819 12 15 C12.13631836 15.66660645 12.27263672 16.33321289 12.41308594 17.02001953 C15.28462322 31.14613035 15.28462322 31.14613035 14 35 C8.69843861 29.48767317 7.58987494 25.45837773 7.33203125 17.9140625 C6.82949229 13.50354407 4.91963558 10.29091871 2 7 C1.01 6.34 0.02 5.68 -1 5 C-0.67 3.35 -0.34 1.7 0 0 Z " fill="#EBF7F9" transform="translate(136,208)"/>
<path d="M0 0 C2 3 2 3 1.7734375 6.22265625 C0.98057984 10.09484491 -0.0916104 13.70011391 -1.375 17.4375 C-1.59760498 18.08984619 -1.82020996 18.74219238 -2.04956055 19.41430664 C-3.61561854 23.97615348 -5.25639518 28.50333493 -7 33 C-7.66 33 -8.32 33 -9 33 C-8.38266858 20.36360372 -7.24181253 10.61099803 0 0 Z " fill="#EBF8FA" transform="translate(341,249)"/>
<path d="M0 0 C0.66 0.33 1.32 0.66 2 1 C-1.55917573 4.79289271 -5.27123733 7.73407602 -9.6875 10.5 C-10.30399414 10.88945801 -10.92048828 11.27891602 -11.55566406 11.68017578 C-23.33400069 19.02708935 -33.9026827 23.72362655 -48 23 C-44.64584069 21.06240312 -41.55266925 20.5028826 -37.75 19.875 C-24.57724793 17.13922595 -9.59567041 9.59567041 0 0 Z " fill="#ECF7FB" transform="translate(256,488)"/>
<path d="M0 0 C0 3 0 3 -2.25 5.375 C-3.1575 6.24125 -4.065 7.1075 -5 8 C-5.8353125 9.2375 -5.8353125 9.2375 -6.6875 10.5 C-10.08001842 14.16758748 -14.32239551 16.28868128 -19 18 C-19.66 17.67 -20.32 17.34 -21 17 C-18.81565024 15.1004337 -16.62767717 13.20532789 -14.4375 11.3125 C-13.82841797 10.78205078 -13.21933594 10.25160156 -12.59179688 9.70507812 C-8.54566884 6.2155603 -4.39057943 3.04571726 0 0 Z " fill="#D4F0F9" transform="translate(146,104)"/>
<path d="M0 0 C0.73211081 5.85688646 -1.51971807 9.5041604 -5 14 C-5.33 14 -5.66 14 -6 14 C-6 10.04 -6 6.08 -6 2 C-2 0 -2 0 0 0 Z " fill="#E2F2F6" transform="translate(287,212)"/>
<path d="M0 0 C0.33 0.66 0.66 1.32 1 2 C-1.64198853 8.41007053 -6.33807584 12.29094794 -12 16 C-10.37921571 12.27131047 -8.02767716 9.42653322 -5.4375 6.3125 C-4.63183594 5.33925781 -3.82617188 4.36601562 -2.99609375 3.36328125 C-1 1 -1 1 0 0 Z " fill="#DBF2F8" transform="translate(121,125)"/>
<path d="M0 0 C3.89917968 1.61537444 6.71293772 4.27924873 9.75 7.125 C10.25660156 7.59292969 10.76320313 8.06085938 11.28515625 8.54296875 C12.52719141 9.69126541 13.76411494 10.84508672 15 12 C14.01 12.495 14.01 12.495 13 13 C7.45396035 9.2430054 3.61836815 5.65370024 0 0 Z " fill="#E6F5F9" transform="translate(293,109)"/>
<path d="M0 0 C0.845625 0.309375 1.69125 0.61875 2.5625 0.9375 C6.0497854 2.01538821 9.38177535 2.56581304 13 3 C13 3.33 13 3.66 13 4 C8.71 4 4.42 4 0 4 C0 2.68 0 1.36 0 0 Z " fill="#D2ECF5" transform="translate(179,130)"/>
</svg>
